<svg height="511pt" viewBox="0 0 511 511.99862" width="511pt" xmlns="http://www.w3.org/2000/svg"><path d="m512.210938 255.914062c.007812 18.414063-1.914063 36.367188-5.566407 53.667969-.140625.65625-.722656 1.125-1.394531 1.125-8.296875 0-15.023438 6.730469-15.023438 15.035157v28.171874c0 4.304688-.9375 8.566407-2.785156 12.453126-1.34375 2.824218-2.734375 5.617187-4.175781 8.382812-2.214844 4.246094-6.644531 6.875-11.433594 6.875-4.539062 0-8.214843 3.679688-8.214843 8.222656v14.664063c0 1.292969-.410157 2.554687-1.175782 3.597656-16.097656 21.839844-35.589844 41.015625-57.722656 56.75-.246094.171875-.535156.265625-.835938.265625h-9.902343c-6.527344 0-11.816407 5.292969-11.820313 11.824219 0 1.378906-.761718 2.648437-1.96875 3.3125-9.753906 5.386719-19.898437 10.15625-30.394531 14.25-.136719.054687-.28125.082031-.429687.082031h-16.5c-3.273438 0-5.921876 2.652344-5.925782 5.925781 0 .976563-.609375 1.855469-1.554687 2.113281-14.34375 3.984376-29.199219 6.761719-44.464844 8.199219-2.460937-5.613281-8.054687-9.542969-14.578125-9.542969-6.933594 0-12.820312 4.449219-14.996094 10.648438-27.875-.53125-54.648437-5.46875-79.632812-14.179688-3.261719-1.136718-5.300782-4.265624-5.308594-7.722656-.015625-9.617187-7.8125-17.410156-17.429688-17.410156h-23.390624c-3.972657 0-7.863282-1.164062-11.171876-3.367188-24.667968-16.425781-46.300781-37.03125-63.902343-60.832031-.84375-1.136719-1.289063-2.523437-1.289063-3.941406v-13.523437c0-5.335938-4.355468-9.652344-9.703125-9.585938-4.144531.050781-7.886719-2.460938-9.816406-6.132812-1.421875-2.707032-2.796875-5.445313-4.125-8.210938-2.695313-5.625-4.089844-11.785156-4.089844-18.019531v-22.378907c0-8.050781-6.109375-14.664062-13.941406-15.480468-.703125-.074219-1.269531-.609375-1.417969-1.300782-3.472656-16.359374-5.402344-33.3125-5.609375-50.699218-.203125-16.640625 1.191407-32.921875 4.027344-48.703125.078125-.417969.421875-.730469.84375-.792969 6.808594-.992188 12.035156-6.851562 12.035156-13.9375 0-5.027344-2.636719-9.425781-6.59375-11.921875 6.363281-21.679687 15.511719-42.171875 27.039063-61.046875.589844-.972656 1.710937-1.460938 2.835937-1.300781.785157.113281 1.582031.175781 2.394531.175781 9.726563 0 17.613282-7.890625 17.613282-17.625v-6.363281c0-4.320313 1.570312-8.5 4.441406-11.726563 13.132812-14.765625 27.953125-27.992187 44.148438-39.394531 1.414062-.996094 3.109374-1.519531 4.835937-1.519531h12.121094c2.667969 0 4.832031-2.164063 4.832031-4.832032 0-2.667968 2.164062-4.832031 4.832031-4.832031h13.734375c9.894532 0 17.914063-8.023437 17.914063-17.921875 0-.929687.582031-1.769531 1.453125-2.085937 27.84375-10.121094 57.929687-15.554688 89.324218-15.3164065 140.902344 1.0742185 253.816407 114.9335935 253.859376 255.9062495zm0 0" fill="#2740af"/><path d="m148.699219 290c-22.078125 0-39.976563 17.910156-39.976563 40v40c0 22.089844 17.898438 40 39.976563 40s39.976562-17.910156 39.976562-40v-40c0-22.089844-17.898437-40-39.976562-40zm14.992187 75c0 8.285156-6.710937 15-14.992187 15s-14.992188-6.714844-14.992188-15v-30c0-8.285156 6.710938-15 14.992188-15s14.992187 6.714844 14.992187 15zm92.949219-215c-22.082031 0-39.980469 17.910156-39.980469 40v40c0 22.089844 17.898438 40 39.980469 40 22.078125 0 39.976563-17.910156 39.976563-40v-40c0-22.089844-17.898438-40-39.976563-40zm14.992187 75c0 8.285156-6.714843 15-14.992187 15-8.28125 0-14.992187-6.714844-14.992187-15v-30c0-8.285156 6.710937-15 14.992187-15 8.277344 0 14.992187 6.714844 14.992187 15zm235.015626 84.558594c-4.257813 20.007812-10.710938 39.128906-19.339844 57.105468.0625-.550781.203125-1.097656.203125-1.664062v-30c0-8.285156-6.714844-15-14.992188-15-8.28125 0-14.992187 6.714844-14.992187 15v30c0 8.285156 6.710937 15 14.992187 15 3.925781 0 7.417969-1.523438 10.09375-3.996094-6.0625 11.410156-12.886719 22.308594-20.539062 32.609375-17.011719-4.597656-29.535157-20.136719-29.535157-38.613281v-40c0-22.089844 17.898438-40 39.980469-40 14.609375 0 27.152344 7.855469 34.128907 19.558594zm-142.070313-299.558594c-22.078125 0-39.976563 17.910156-39.976563 40v40c0 22.089844 17.898438 40 39.976563 40 22.082031 0 39.980469-17.910156 39.980469-40v-40c0-22.089844-17.898438-40-39.980469-40zm14.992187 75c0 8.285156-6.710937 15-14.992187 15-8.277344 0-14.992187-6.714844-14.992187-15v-30c0-8.285156 6.714843-15 14.992187-15 8.28125 0 14.992187 6.714844 14.992187 15zm92.949219-75c-22.078125 0-39.976562 17.910156-39.976562 40v40c0 22.089844 17.898437 40 39.976562 40s39.976563-17.910156 39.976563-40v-40c0-22.089844-17.898438-40-39.976563-40zm14.992188 75c0 8.285156-6.710938 15-14.992188 15s-14.992187-6.714844-14.992187-15v-30c0-8.285156 6.710937-15 14.992187-15s14.992188 6.714844 14.992188 15zm-82.621094 379.738281c-7.90625 5.597657-16.144531 10.824219-24.679687 15.511719v-5.25c0-8.285156-6.710938-15-14.992188-15s-14.992188 6.714844-14.992188 15v19.34375c-8.132812 3.175781-16.472656 5.988281-24.984374 8.332031v-32.675781c0-22.089844 17.898437-40 39.976562-40 20.425781 0 37.261719 14.953125 39.671875 34.738281zm-236.117187-449.339843c-9.804688 3.582031-19.277344 7.746093-28.480469 12.402343-10.976563 5.558594-21.460938 11.960938-31.449219 19.042969-.074219.988281-.121094 1.9375-.121094 2.941406v40.214844c0 22.089844 17.898438 40 39.976563 40s39.976562-17.910156 39.976562-40v-40c0-14.730469-8.050781-27.664062-19.902343-34.601562zm-5.082032 69.601562c0 8.285156-6.710937 15-14.992187 15s-14.992188-6.714844-14.992188-15v-30c0-8.285156 6.710938-15 14.992188-15s14.992187 6.714844 14.992187 15zm-82.953125 245v40c0 18.472656-12.523437 34.015625-29.53125 38.609375-7.65625-10.296875-14.546875-21.195313-20.609375-32.605469 2.671875 2.472656 6.234375 3.996094 10.160156 3.996094 8.28125 0 14.992188-6.71875 14.992188-15v-30c0-8.285156-6.710938-15-14.992188-15-8.277343 0-14.867187 6.714844-14.867187 15v30c0 .566406.039063 1.125.101563 1.671875-8.628907-17.976563-15.125-37.121094-19.378907-57.128906 6.972657-11.699219 19.539063-19.542969 34.144531-19.542969 22.082032 0 39.980469 17.910156 39.980469 40zm0 0" fill="#fd4fb6"/><path d="m349.609375 85v5c0 17.722656 11.523437 32.746094 27.484375 37.996094-3.933594 1.292968-8.128906 2.003906-12.492188 2.003906-22.082031 0-39.980468-17.910156-39.980468-40v-40c0-22.089844 17.898437-40 39.980468-40 4.363282 0 8.558594.707031 12.492188 2.003906-15.957031 5.25-27.484375 20.269532-27.484375 37.996094zm107.9375 5v-40c0-17.722656 11.527344-32.746094 27.488281-37.996094-3.933594-1.292968-8.128906-2.003906-12.496094-2.003906-22.078124 0-39.976562 17.910156-39.976562 40v40c0 22.089844 17.898438 40 39.976562 40 4.367188 0 8.5625-.710938 12.496094-2.003906-15.960937-5.25-27.488281-20.273438-27.488281-37.996094zm-323.820313 0v-40c0-8.171875 2.402344-15.886719 6.605469-22.21875-10.992187 5.621094-21.652343 11.824219-31.488281 19.0625-.074219.988281-.101562 1.933594-.101562 2.941406v40.214844c0 22.089844 17.898437 40 39.976562 40 4.367188 0 8.5625-.710938 12.496094-2.003906-15.960938-5.25-27.488282-20.273438-27.488282-37.996094zm107.941407 105v-5c0-17.722656 11.527343-32.746094 27.484375-37.996094-3.929688-1.296875-8.128906-2.003906-12.492188-2.003906-22.078125 0-39.976562 17.910156-39.976562 40v40c0 22.089844 17.898437 40 39.976562 40 4.363282 0 8.5625-.710938 12.492188-2.003906-15.957032-5.25-27.484375-20.269532-27.484375-37.996094zm123.574219 235c-22.082032 0-39.980469 17.910156-39.980469 40l-.019531 32.664062c8.511718-2.339843 16.851562-5.144531 24.984374-8.320312l.023438-19.34375v-5c0-17.726562 11.523438-32.746094 27.484375-37.996094-3.933594-1.292968-8.128906-2.003906-12.492187-2.003906zm92.304687-95v-5c0-17.726562 11.527344-32.746094 27.488281-37.996094-3.933594-1.296875-8.128906-2.003906-12.496094-2.003906-22.078124 0-39.976562 17.910156-39.976562 40v40c0 18.472656 12.5 34.015625 29.511719 38.609375 2.492187-3.355469 4.929687-6.777344 7.261719-10.257813-7.28125-7.242187-11.789063-17.269531-11.789063-28.351562zm-323.820313 0v-5c0-17.726562 11.527344-32.746094 27.488282-37.996094-3.933594-1.296875-8.128906-2.003906-12.496094-2.003906-22.078125 0-39.976562 17.910156-39.976562 40v40c0 22.089844 17.898437 40 39.976562 40 4.367188 0 8.5625-.710938 12.496094-2.003906-15.960938-5.25-27.488282-20.269532-27.488282-37.996094zm-92.945312-45c-14.609375 0-27.445312 7.84375-34.417969 19.542969 4.238281 19.929687 10.804688 39.167969 19.382813 57.085937l.167968-1.628906v-35c0-17.726562 11.402344-32.746094 27.359376-37.996094-3.933594-1.292968-8.128907-2.003906-12.492188-2.003906zm0 0" fill="#fd2aa7"/><path d="m173.347656 165v90c0 8.285156-6.710937 15-14.992187 15-8.277344 0-14.988281-6.714844-14.988281-15v-53.789062l-9.390626 9.394531c-5.855468 5.859375-15.347656 5.859375-21.199218 0-5.855469-5.855469-5.855469-15.355469 0-21.210938l34.980468-35c2.710938-2.714843 6.460938-4.394531 10.601563-4.394531 8.277344 0 14.988281 6.714844 14.988281 15zm200.890625-15c-4.140625 0-7.890625 1.679688-10.601562 4.394531l-34.980469 35c-5.855469 5.855469-5.855469 15.351563 0 21.210938s15.347656 5.859375 21.199219 0l9.390625-9.394531v53.789062c0 8.285156 6.710937 15 14.992187 15 8.277344 0 14.988281-6.714844 14.988281-15v-90c.003907-8.285156-6.710937-15-14.988281-15zm110.9375 0c-4.140625 0-7.886719 1.679688-10.601562 4.394531l-34.980469 35c-5.855469 5.855469-5.855469 15.351563 0 21.210938s15.347656 5.859375 21.199219 0l9.390625-9.394531v53.789062c0 8.285156 6.710937 15 14.992187 15 8.277344 0 14.992188-6.714844 14.992188-15v-90c0-8.285156-6.710938-15-14.992188-15zm-326.75 280c-4.167969-.019531-7.941406 1.664062-10.667969 4.394531l-34.246093 34.257813c18.355469 12.359375 38.523437 22.367187 59.835937 29.671875v-52.878907c0-8.332031-6.59375-15.40625-14.921875-15.445312zm107.871094-140c-4.140625 0-7.886719 1.679688-10.601563 4.394531l-34.980468 35c-5.855469 5.855469-5.855469 15.351563 0 21.210938 5.855468 5.859375 15.347656 5.859375 21.203125 0l9.386719-9.394531v53.789062c0 8.285156 6.710937 15 14.992187 15s14.992187-6.714844 14.992187-15v-90c0-8.285156-6.710937-15-14.992187-15zm107.941406 0c-4.140625 0-7.890625 1.679688-10.601562 4.394531l-34.980469 35c-5.855469 5.855469-5.855469 15.351563 0 21.210938s15.347656 5.859375 21.199219 0l9.390625-9.394531v53.789062c0 8.285156 6.710937 15 14.992187 15 8.277344 0 14.988281-6.714844 14.988281-15v-90c.003907-8.285156-6.710937-15-14.988281-15zm-107.941406-280c-4.140625 0-7.886719 1.679688-10.601563 4.394531l-34.980468 35c-5.855469 5.855469-5.855469 15.351563 0 21.210938 5.855468 5.859375 15.347656 5.859375 21.203125 0l9.386719-9.394531v53.789062c0 8.285156 6.710937 15 14.992187 15s14.992187-6.714844 14.992187-15v-90c0-8.285156-6.710937-15-14.992187-15zm0 420c-4.140625 0-7.886719 1.679688-10.601563 4.394531l-34.980468 35c-5.855469 5.855469-5.855469 15.351563 0 21.210938 5.855468 5.859375 15.347656 5.859375 21.203125 0l9.386719-9.394531v30.726562c1.664062.03125 3.324218.0625 4.996093.0625 8.429688 0 16.765625-.40625 24.988281-1.203125v-65.796875c0-8.285156-6.710937-15-14.992187-15zm-215.878906-300c8.28125 0 14.992187-6.714844 14.992187-15v-29.433594c-10.316406 11.558594-19.566406 24.070313-27.667968 37.371094 2.644531 4.246094 7.304687 7.0625 12.675781 7.0625zm0 20c-4.140625 0-7.886719 1.679688-10.601563 4.394531l-28.886718 28.898438c-2.601563 8.804687-4.753907 17.796875-6.40625 26.964843.105468.113282.199218.238282.3125.347657 5.855468 5.859375 15.347656 5.859375 21.199218 0l9.390625-9.394531v53.789062c0 8.285156 6.710938 15 14.992188 15 8.277343 0 14.992187-6.714844 14.992187-15v-90c0-8.285156-6.710937-15-14.992187-15zm0 0" fill="#89e9d9"/><path d="m164.917969 268.539062c-2.507813 1.265626-5.40625 1.871094-8.484375 1.515626-7.632813-.878907-13.253906-7.605469-13.253906-15.292969v-53.394531l-9.390626 9.394531c-2.925781 2.929687-6.761718 4.394531-10.601562 4.394531-3.835938 0-7.671875-1.464844-10.597656-4.394531-2.546875-2.546875-3.988282-5.785157-4.316406-9.113281-.429688-4.320313 1.007812-8.789063 4.316406-12.097657l1.636718-1.640625c-.425781 2.566406.34375 5.289063 2.324219 7.269532 3.253907 3.257812 8.53125 3.257812 11.785157 0l20.449218-20.460938c2.910156-2.914062 7.886719-.851562 7.886719 3.265625v77.171875c0 5.851562 3.359375 10.910156 8.246094 13.382812zm-15.894531 186.023438-20.449219 20.460938c-.644531.640624-1.492188 1.292968-2.265625 1.683593 4.5625 2.695313 9.308594 5.238281 14.046875 7.652344l3.0625 1.394531c4.429687 2.183594 9.085937 4.367188 13.65625 6.300782l-.164063-20.054688v-14.171875c0-4.117187-4.976562-6.179687-7.886718-3.265625zm-100.054688-199.5625v-77.171875c0-4.117187-4.972656-6.179687-7.882812-3.269531l-20.449219 20.460937c-3.257813 3.257813-8.535157 3.257813-11.789063 0-.296875-.292969-.554687-.613281-.796875-.9375-1.324219 5.328125-2.492187 10.722657-3.476562 16.179688.105469.113281.203125.234375.3125.34375 2.929687 2.929687 6.765625 4.394531 10.601562 4.394531 3.835938 0 7.675781-1.464844 10.601563-4.394531l9.386718-9.394531v53.394531c0 7.6875 5.625 14.414062 13.257813 15.292969 3.074219.355468 5.972656-.25 8.480469-1.519532-4.886719-2.46875-8.246094-7.527344-8.246094-13.378906zm0-140v-8.9375c-3.925781 5.433594-7.726562 11.132812-11.226562 16.871094 2.335937 3.804687 6.316406 6.429687 10.992187 6.964844 3.074219.355468 5.976563-.25 8.480469-1.515626-4.886719-2.472656-8.246094-7.53125-8.246094-13.382812zm207.652344 339.5625-20.449219 20.460938c-3.253906 3.253906-8.53125 3.253906-11.785156 0-1.980469-1.980469-2.625-4.5625-2.199219-7.128907l-1.640625 1.640625c-3.304687 3.308594-4.867187 7.636719-4.4375 11.957032.328125 3.328124 1.769531 6.5625 4.316406 9.113281 2.925781 2.929687 6.761719 4.394531 10.597657 4.394531 3.839843 0 7.675781-1.464844 10.601562-4.394531l9.390625-9.394531v30.726562c1.660156.03125 3.324219.0625 4.996094.0625 2.84375 0 5.671875-.066406 8.496093-.15625v-54.015625c0-4.117187-4.976562-6.179687-7.886718-3.265625zm116.023437-199.457031v-77.171875c0-4.117188-4.976562-6.179688-7.886719-3.269532l-20.449218 20.460938c-3.253906 3.257812-8.53125 3.257812-11.785156 0-1.980469-1.976562-2.746094-4.703125-2.320313-7.265625l-1.640625 1.636719c-3.308594 3.308594-4.746094 7.78125-4.316406 12.101562.332031 3.324219 1.769531 6.5625 4.316406 9.113282 2.925781 2.929687 6.765625 4.394531 10.601562 4.394531 3.835938 0 7.671876-1.464844 10.597657-4.394531l9.390625-9.394532v53.394532c0 7.6875 5.621094 14.414062 13.253906 15.292968 3.078125.355469 5.976562-.25 8.484375-1.519531-4.886719-2.46875-8.246094-7.527344-8.246094-13.378906zm111.082031-.105469v-77.171875c0-4.117187-4.972656-6.179687-7.882812-3.269531l-20.449219 20.460937c-3.257812 3.257813-8.53125 3.257813-11.789062 0-1.976563-1.976562-2.777344-4.726562-2.351563-7.292969l-1.640625 1.640626c-3.308593 3.308593-4.765625 7.8125-4.335937 12.132812.332031 3.328125 1.738281 6.523438 4.285156 9.074219l.03125.03125c2.925781 2.929687 6.816406 4.394531 10.652344 4.394531 3.835937 0 7.675781-1.464844 10.601562-4.394531l9.335938-9.394531v53.539062c.074218 8.164062 5.675781 14.269531 13.308594 15.148438 3.074218.355468 5.972656-.25 8.480468-1.519532-4.886718-2.46875-8.246094-7.527344-8.246094-13.378906zm-219 140.125v-77.171875c0-4.117187-4.976562-6.179687-7.886718-3.269531l-20.449219 20.460937c-3.253906 3.257813-8.53125 3.257813-11.789063 0-1.976562-1.976562-2.746093-4.703125-2.320312-7.269531l-1.636719 1.640625c-3.308593 3.308594-4.746093 7.78125-4.316406 12.101563.328125 3.324218 1.769531 6.5625 4.316406 9.113281 2.925781 2.929687 6.761719 4.390625 10.597657 4.390625 3.839843 0 7.675781-1.460938 10.601562-4.390625l9.386719-9.394531v53.394531c0 7.6875 5.625 14.414062 13.257812 15.292969 3.074219.351562 5.976563-.25 8.480469-1.519532-4.886719-2.46875-8.242188-7.523437-8.242188-13.378906zm-.023437-280.054688v-77.171874c0-4.117188-4.972656-6.179688-7.882813-3.269532l-20.449218 20.460938c-3.257813 3.257812-8.535156 3.257812-11.789063 0-1.976562-1.976563-2.746093-4.703125-2.320312-7.265625l-1.640625 1.636719c-3.304688 3.3125-4.746094 7.78125-4.316406 12.101562.332031 3.324219 1.769531 6.5625 4.316406 9.113281 2.929687 2.929688 6.765625 4.394531 10.601562 4.394531 3.835938 0 7.671875-1.464843 10.601563-4.394531l9.386719-9.394531v53.394531c0 7.6875 5.625 14.414063 13.257812 15.292969 3.074219.355469 5.972656-.25 8.480469-1.519531-4.886719-2.46875-8.246094-7.527344-8.246094-13.378907zm107.796875 280.074219v-77.171875c0-4.117187-4.976562-6.179687-7.886719-3.265625l-20.449219 20.460938c-3.253906 3.253906-8.53125 3.253906-11.789062 0-1.976562-1.980469-2.761719-4.59375-2.335938-7.160157l-1.621093 1.53125c-3.308594 3.308594-4.746094 7.78125-4.320313 12.097657.332032 3.328125 1.773438 6.566406 4.320313 9.113281 2.925781 2.929688 6.761719 4.394531 10.597656 4.394531s7.675781-1.464843 10.601563-4.394531l9.386718-9.390625v53.390625c0 7.691406 5.625 14.414062 13.257813 15.292969 3.074219.355469 5.976562-.25 8.480469-1.515625-4.886719-2.472656-8.242188-7.527344-8.242188-13.382813zm0 0" fill="#5de0c3"/></svg>