<svg height="512pt" viewBox="0 0 512 512" width="512pt" xmlns="http://www.w3.org/2000/svg"><path d="m18.558594 250c-10.289063 0-18.332032-8.875-17.335938-19.113281 12.617188-129.597657 121.867188-230.886719 254.777344-230.886719 132.890625 0 242.160156 101.289062 254.777344 230.886719.996094 10.242187-7.046875 19.113281-17.335938 19.113281zm0 0" fill="#98e5fb"/><path d="m460 180c0 11.046875-8.953125 20-20 20h-150c-11.046875 0-20-8.953125-20-20s8.953125-20 20-20h150c11.046875 0 20 8.953125 20 20zm-70-50h88.886719c-8.070313-14.242188-17.476563-27.625-28.027344-40h-60.859375c-11.046875 0-20 8.953125-20 20s8.953125 20 20 20zm-60-40c0-11.046875-8.953125-20-20-20h-130c-5.523438 0-10-4.476562-10-10s4.476562-10 10-10h30c11.046875 0 20-8.953125 20-20s-8.953125-20-20-20h-25.0625c-29.515625 8.511719-56.832031 22.195312-80.921875 40h25.984375c5.523438 0 10 4.476562 10 10s-4.476562 10-10 10h-30c-11.046875 0-20 8.953125-20 20s8.953125 20 20 20h210c11.046875 0 20-8.953125 20-20zm0 0" fill="#c7eefd"/><path d="m510.6875 230c.859375 8.550781 1.3125 17.222656 1.3125 26 0 141.386719-114.613281 256-256 256s-256-114.613281-256-256c0-8.777344.449219-17.449219 1.3125-26zm0 0" fill="#649eb0"/><path d="m1.109375 280c-.734375-7.902344-1.109375-15.90625-1.109375-24 0-8.777344.449219-17.449219 1.3125-26h509.375c.859375 8.550781 1.3125 17.222656 1.3125 26 0 8.09375-.394531 16.097656-1.128906 24zm0 0" fill="#458fa4"/><path d="m361.332031 127.4375c1.410157 5.339844-1.769531 10.816406-7.109375 12.226562-2.671875.707032-5.375.265626-7.585937-1.023437-2.210938-1.285156-3.933594-3.414063-4.640625-6.085937-4.230469-15.988282-20.683594-25.558594-36.675782-21.324219-5.339843 1.414062-10.8125-1.769531-12.226562-7.109375s1.769531-10.8125 7.109375-12.226563c26.652344-7.050781 54.074219 8.890625 61.128906 35.542969zm-61.695312-76.769531c-5.339844 1.410156-8.523438 6.886719-7.109375 12.226562 1.414062 5.335938 6.886718 8.519531 12.226562 7.109375 15.507813-4.105468 31.671875-1.933594 45.519532 6.117188 13.84375 8.050781 23.730468 21.027344 27.835937 36.535156.703125 2.667969 2.425781 4.796875 4.640625 6.085938 2.210938 1.285156 4.914062 1.726562 7.585938 1.023437 5.335937-1.414063 8.519531-6.886719 7.105468-12.226563-11.285156-42.644531-55.160156-68.15625-97.804687-56.871093zm140.027343 40.523437c-16.929687-63.964844-82.742187-102.234375-146.707031-85.304687-5.339843 1.414062-8.519531 6.886719-7.109375 12.226562 1.414063 5.335938 6.886719 8.519531 12.226563 7.109375 53.304687-14.109375 108.148437 17.78125 122.253906 71.085938.707031 2.671875 2.429687 4.800781 4.644531 6.085937 2.210938 1.285157 4.914063 1.730469 7.582032 1.023438 5.339843-1.414063 8.523437-6.886719 7.109374-12.226563zm0 0" fill="#08a8f0"/><path d="m400.59375 231.785156 46.152344 15.386719c23.25 7.75 39.453125 28.863281 40.917968 53.324219l2.300782 38.304687c.6875 11.496094-8.449219 21.199219-19.964844 21.199219h-427.464844c-12.070312 0-21.394531-10.613281-19.832031-22.585938l17.96875-137.761718c5.195313-39.84375 39.144531-69.652344 79.328125-69.652344h153.957031c23.632813 0 46.054688 10.449219 61.253907 28.546875l56.390624 67.128906c2.375 2.828125 5.488282 4.941407 8.992188 6.109375zm0 0" fill="#f02399"/><path d="m489.136719 325h-259.136719v-135h-20v60h-30c-5.523438 0-10 4.476562-10 10s4.476562 10 10 10h30v55h-54.015625c-53.652344 0-95.074219-47.175781-88.132813-100.375 4.957032-38.015625 23.976563-71.117188 51.414063-94.355469.214844-.078125.519531-.191406.734375-.269531h153.957031c23.632813 0 46.054688 10.449219 61.257813 28.542969l56.386718 67.132812c2.375 2.828125 5.488282 4.941407 8.992188 6.109375l46.152344 15.386719c23.25 7.75 39.449218 28.863281 40.917968 53.328125zm0 0" fill="#fd2aa7"/><path d="m489.136719 284v22c0 2.210938-1.792969 4-4 4h-30.136719c-8.285156 0-15-6.714844-15-15s6.714844-15 15-15h30.136719c2.207031 0 4 1.789062 4 4zm0 0" fill="#fc9302"/><path d="m489.136719 284v22c0 2.210938-1.792969 4-4 4h-10.136719c-8.285156 0-15-6.714844-15-15s6.714844-15 15-15h10.136719c2.207031 0 4 1.789062 4 4zm0 0" fill="#fdbf43"/><path d="m230 170v40c0 11.046875-8.953125 20-20 20h-127.34375c-12.03125 0-21.339844-10.542969-19.847656-22.480469l2.8125-22.480469c2.5-20.019531 19.515625-35.039062 39.691406-35.039062h104.6875c11.046875 0 20 8.953125 20 20zm161.601562 55.675781-56.386718-67.128906c-2.585938-3.078125-5.382813-5.925781-8.355469-8.546875h-56.859375c-11.046875 0-20 8.953125-20 20v40c0 11.046875 8.953125 20 20 20h126.699219c-1.917969-1.140625-3.644531-2.597656-5.097657-4.324219zm0 0" fill="#314dc8"/><path d="m82.15625 207.519531c-1.492188 11.9375 7.816406 22.480469 19.847656 22.480469h-19.347656c-12.03125 0-21.339844-10.542969-19.847656-22.480469l2.8125-22.480469c2.5-20.019531 19.515625-35.039062 39.691406-35.039062h19.34375c-20.171875 0-37.1875 15.019531-39.6875 35.039062zm187.191406 2.480469v-40c0-11.046875 8.953125-20 20-20h-19.347656c-11.046875 0-20 8.953125-20 20v40c0 11.046875 8.953125 20 20 20h19.347656c-11.046875 0-20-8.953125-20-20zm0 0" fill="#1f3595"/><path d="m78.03125 440h355.933594c-46.066406 44.566406-108.808594 72-177.964844 72s-131.898438-27.433594-177.96875-72zm0 0" fill="#328091"/><path d="m190 360c0 33.136719-26.863281 60-60 60s-60-26.863281-60-60 26.863281-60 60-60 60 26.863281 60 60zm190-60c-33.136719 0-60 26.863281-60 60s26.863281 60 60 60 60-26.863281 60-60-26.863281-60-60-60zm0 0" fill="#235967"/><path d="m87.144531 360c0 30.226562 22.351563 55.21875 51.425781 59.382812-2.800781.398438-5.660156.617188-8.570312.617188-33.136719 0-60-26.863281-60-60s26.863281-60 60-60c2.910156 0 5.773438.21875 8.570312.617188-29.074218 4.164062-51.425781 29.15625-51.425781 59.382812zm250 0c0-30.226562 22.351563-55.21875 51.425781-59.382812-2.800781-.398438-5.660156-.617188-8.570312-.617188-33.136719 0-60 26.863281-60 60s26.863281 60 60 60c2.910156 0 5.773438-.21875 8.570312-.617188-29.074218-4.164062-51.425781-29.15625-51.425781-59.382812zm0 0" fill="#174550"/><path d="m164.285156 360c0 18.9375-15.347656 34.285156-34.285156 34.285156s-34.285156-15.347656-34.285156-34.285156 15.347656-34.285156 34.285156-34.285156 34.285156 15.347656 34.285156 34.285156zm215.714844-34.285156c-18.933594 0-34.285156 15.347656-34.285156 34.285156s15.347656 34.285156 34.285156 34.285156 34.285156-15.347656 34.285156-34.285156-15.351562-34.285156-34.285156-34.285156zm0 0" fill="#98e5fb"/><path d="m164.285156 360c0 14.621094-9.152344 27.09375-22.039062 32.023438-12.886719-4.929688-22.042969-17.40625-22.042969-32.023438 0-14.621094 9.15625-27.09375 22.042969-32.023438 12.886718 4.929688 22.039062 17.402344 22.039062 32.023438zm227.960938-32.023438c-12.886719 4.929688-22.042969 17.402344-22.042969 32.023438s9.15625 27.09375 22.042969 32.023438c12.886718-4.929688 22.039062-17.40625 22.039062-32.023438 0-14.621094-9.152344-27.09375-22.039062-32.023438zm0 0" fill="#c7eefd"/><path d="m161.976562 347.625-21.433593 12.375 21.433593 12.375c-1.289062 3.324219-3.078124 6.398438-5.277343 9.125l-21.425781-12.371094v24.753906c-1.71875.265626-3.480469.402344-5.273438.402344-1.789062 0-3.550781-.136718-5.269531-.402344v-24.753906l-21.425781 12.371094c-2.203126-2.726562-3.992188-5.800781-5.277344-9.125l21.429687-12.375-21.433593-12.375c1.289062-3.324219 3.078124-6.398438 5.277343-9.125l21.425781 12.371094v-24.753906c1.71875-.265626 3.480469-.402344 5.273438-.402344 1.789062 0 3.550781.136718 5.269531.402344v24.753906l21.425781-12.371094c2.203126 2.726562 3.992188 5.800781 5.28125 9.125zm250 0c-1.289062-3.324219-3.078124-6.398438-5.277343-9.125l-21.425781 12.371094v-24.753906c-1.71875-.265626-3.480469-.402344-5.273438-.402344-1.789062 0-3.550781.136718-5.269531.402344v24.753906l-21.425781-12.371094c-2.203126 2.726562-3.992188 5.800781-5.277344 9.125l21.429687 12.375-21.433593 12.375c1.289062 3.324219 3.078124 6.398438 5.277343 9.125l21.425781-12.371094v24.753906c1.71875.265626 3.480469.402344 5.273438.402344 1.789062 0 3.550781-.136718 5.269531-.402344v-24.753906l21.425781 12.371094c2.203126-2.726562 3.992188-5.800781 5.277344-9.125l-21.429687-12.375zm0 0" fill="#95bcc9"/></svg>