<svg height="512pt" viewBox="0 0 512.0004 512" width="512pt" xmlns="http://www.w3.org/2000/svg"><path d="m397.738281 469.203125c-41.40625 27.582031-91.296875 43.429687-144.929687 42.777344-141.179688-1.722657-254.886719-118.707031-252.7812502-259.878907 2.0859372-139.585937 115.8906252-252.101562 255.9726562-252.101562 140.351562 0 253.972656 111.929688 255.972656 252.269531.660156 46.324219-10.996094 89.871094-31.890625 127.589844-3.480469 6.277344-10.132812 10.140625-17.3125 10.140625-29.144531 0-52.769531 23.625-52.769531 52.769531v3.441407c0 9.230468-4.582031 17.875-12.261719 22.992187zm0 0" fill="#f02399"/><path d="m423.5 310v60h-25v-55c0-11.046875-8.953125-20-20-20h-110v135c0 6.851562-5.523438 12.476562-12.375 12.480469-.011719 0-.023438 5.097656-.03125 12.523437 6.859375.050782 12.40625 5.625 12.40625 12.496094 0 6.882812-5.5625 12.464844-12.441406 12.496094-.003906 3.417968-.007813 6.796875-.011719 10.007812 6.882813.023438 12.453125 5.609375 12.453125 12.496094 0 3.726562-1.640625 7.0625-4.226562 9.351562-2.75.089844-5.503907.148438-8.273438.148438s-5.523438-.058594-8.273438-.148438c-2.585937-2.289062-4.226562-5.625-4.226562-9.351562 0-6.886719 5.570312-12.472656 12.453125-12.496094-.003906-3.210937-.007813-6.589844-.011719-10.007812-6.875-.03125-12.441406-5.613282-12.441406-12.496094 0-6.871094 5.546875-12.445312 12.410156-12.496094-.011718-7.425781-.023437-12.523437-.035156-12.523437-6.851562-.003907-12.375-5.628907-12.375-12.480469v-135h-110c-11.046875 0-20 8.953125-20 20v55h-25v-60c0-22.089844 17.910156-40 40-40h115v-180h25v180h115c22.089844 0 40 17.910156 40 40zm0 0" fill="#fd4fb6"/><path d="m286 280c0 16.570312-13.429688 30-30 30s-30-13.429688-30-30 13.429688-30 30-30 30 13.429688 30 30zm0 0" fill="#fd92d2"/><path d="m162 470h-122c-5.523438 0-10-4.476562-10-10v-118c0-5.523438 4.476562-10 10-10h122c5.523438 0 10 4.476562 10 10v118c0 5.523438-4.476562 10-10 10zm0 0" fill="#0ab59e"/><path d="m50 437.332031v22.667969c0 5.523438 4.476562 10 10 10h102c5.523438 0 10-4.476562 10-10v-27.667969h-117c-2.761719 0-5 2.238281-5 5zm70 2.667969c5.523438 0 10 4.476562 10 10s-4.476562 10-10 10-10-4.476562-10-10 4.476562-10 10-10zm-70-51.332031v23.667969c0 2.757812 2.238281 5 5 5h117v-33.667969h-117c-2.761719 0-5 2.238281-5 5zm70 1.332031c5.523438 0 10 4.476562 10 10s-4.476562 10-10 10-10-4.476562-10-10 4.476562-10 10-10zm42-58h-102c-5.523438 0-10 4.476562-10 10v21.667969c0 2.761719 2.238281 5 5 5h117v-26.667969c0-5.523438-4.476562-10-10-10zm-42 28c-5.523438 0-10-4.476562-10-10s4.476562-10 10-10 10 4.476562 10 10-4.476562 10-10 10zm0 0" fill="#0ed1b2"/><path d="m140 350c0-5.523438 4.476562-10 10-10s10 4.476562 10 10-4.476562 10-10 10-10-4.476562-10-10zm10 40c-5.523438 0-10 4.476562-10 10s4.476562 10 10 10 10-4.476562 10-10-4.476562-10-10-10zm0 50c-5.523438 0-10 4.476562-10 10s4.476562 10 10 10 10-4.476562 10-10-4.476562-10-10-10zm0 0" fill="#98e5fb"/><path d="m431 155c0 27.613281-22.386719 50-50 50h-250c-27.613281 0-50-22.386719-50-50s22.386719-50 50-50h1.269531c11.378907-22.253906 34.515625-37.5 61.230469-37.5 10.789062 0 20.992188 2.492188 30.078125 6.917969 15.03125-26.519531 43.507813-44.417969 76.171875-44.417969 44.183594 0 80.707031 32.75 86.648438 75.292969 25.074218 2.695312 44.601562 23.917969 44.601562 49.707031zm0 0" fill="#c7eefd"/><path d="m130 135.859375c-21.921875 5.484375-38.417969 24.65625-39.882812 47.910156-5.738282-8.136719-9.117188-18.054687-9.117188-28.769531 0-27.613281 22.386719-50 50-50h1.269531c11.378907-22.253906 34.515625-37.5 61.230469-37.5 10.789062 0 20.992188 2.492188 30.078125 6.917969 15.03125-26.519531 43.507813-44.417969 76.171875-44.417969 31.566406 0 59.214844 16.71875 74.601562 41.78125-15.03125-10.5625-33.335937-16.78125-53.101562-16.78125-29.140625 0-55.128906 13.476562-72.085938 34.535156-5.292968 6.578125-13.980468 9.472656-22.15625 7.378906-5.78125-1.484374-11.835937-2.269531-18.078124-2.269531-24.804688 0-46.695313 12.433594-59.804688 31.402344-3.511719 5.078125-9.046875 8.347656-15.171875 9.132813-1.523437.199218-2.925781.425781-3.953125.679687zm0 0" fill="#98e5fb"/><path d="m480.332031 379.398438c-20.171875 36.597656-49.039062 67.71875-83.816406 90.601562h-48.183594c-5.523437 0-10-4.476562-10-10v-118c0-5.523438 4.476563-10 10-10h71.667969c5.523438 0 10 4.476562 10 10v6h40.332031c5.523438 0 10 4.476562 10 10zm0 0" fill="#fdcb6b"/><path d="m371.832031 470h-23.5c-5.523437 0-10-4.476562-10-10v-118c0-5.523438 4.476563-10 10-10h23.5c-5.523437 0-10 4.476562-10 10v118c0 5.523438 4.476563 10 10 10zm0 0" fill="#fdbf43"/></svg>