<svg height="512pt" viewBox="0 0 511 512" width="512pt" xmlns="http://www.w3.org/2000/svg"><path d="m66.832031 427.921875c-40.847656-45.035156-65.882812-104.667969-66.324219-170.152344-.960937-141.726562 114.261719-257.769531 255.992188-257.769531 141.386719 0 256 114.617188 256 256 0 60.53125-21.015625 116.152344-56.140625 159.976562-6.417969 8.003907-16.734375 11.792969-26.804687 9.84375-53.859376-10.441406-112.167969-16.152343-173.054688-16.152343-66.273438 0-129.496094 6.765625-187.246094 19.03125-.886718.191406-1.8125-.105469-2.421875-.777344zm0 0" fill="#fd7d43"/><path d="m450.5 160v250h-30v-250c0-5.523438-4.476562-10-10-10h-120v-30h120c22.089844 0 40 17.910156 40 40zm0 0" fill="#ee4424"/><path d="m460.5 285c0 13.808594-11.191406 25-25 25s-25-11.191406-25-25 11.191406-25 25-25 25 11.191406 25 25zm0 0" fill="#fde5bd"/><path d="m360.5 60v400c0 11.046875-8.953125 20-20 20h-187.949219c-31.117187-13.84375-58.960937-33.707031-82.050781-58.117188v-361.882812c0-11.046875 8.953125-20 20-20h250c11.046875 0 20 8.953125 20 20zm0 0" fill="#235967"/><path d="m100.5 195v40c0 2.761719 2.238281 5 5 5h255v-50h-255c-2.761719 0-5 2.238281-5 5zm150 7.5c6.902344 0 12.5 5.597656 12.5 12.5s-5.597656 12.5-12.5 12.5-12.5-5.597656-12.5-12.5 5.597656-12.5 12.5-12.5zm-150-77.5v40c0 2.761719 2.238281 5 5 5h255v-50h-255c-2.761719 0-5 2.238281-5 5zm150 8.5c6.902344 0 12.5 5.597656 12.5 12.5s-5.597656 12.5-12.5 12.5-12.5-5.597656-12.5-12.5 5.597656-12.5 12.5-12.5zm-150 131.5v40c0 2.761719 2.238281 5 5 5h255v-50h-255c-2.761719 0-5 2.238281-5 5zm150 7.5c6.902344 0 12.5 5.597656 12.5 12.5s-5.597656 12.5-12.5 12.5-12.5-5.597656-12.5-12.5 5.597656-12.5 12.5-12.5zm-145 57.5h255v70c0 11.046875-8.953125 20-20 20h-220c-11.046875 0-20-8.953125-20-20v-65c0-2.761719 2.238281-5 5-5zm235-290h-220c-11.046875 0-20 8.953125-20 20v35c0 2.761719 2.238281 5 5 5h255v-40c0-11.046875-8.953125-20-20-20zm-90 42.5c-6.902344 0-12.5-5.597656-12.5-12.5s5.597656-12.5 12.5-12.5 12.5 5.597656 12.5 12.5-5.597656 12.5-12.5 12.5zm0 0" fill="#2b6c7e"/><path d="m278 70c0-6.902344 5.597656-12.5 12.5-12.5s12.5 5.597656 12.5 12.5-5.597656 12.5-12.5 12.5-12.5-5.597656-12.5-12.5zm12.5 63.5c-6.902344 0-12.5 5.597656-12.5 12.5s5.597656 12.5 12.5 12.5 12.5-5.597656 12.5-12.5-5.597656-12.5-12.5-12.5zm0 69c-6.902344 0-12.5 5.597656-12.5 12.5s5.597656 12.5 12.5 12.5 12.5-5.597656 12.5-12.5-5.597656-12.5-12.5-12.5zm0 70c-6.902344 0-12.5 5.597656-12.5 12.5s5.597656 12.5 12.5 12.5 12.5-5.597656 12.5-12.5-5.597656-12.5-12.5-12.5zm0 0" fill="#0ed1b2"/><path d="m318 70c0-6.902344 5.597656-12.5 12.5-12.5s12.5 5.597656 12.5 12.5-5.597656 12.5-12.5 12.5-12.5-5.597656-12.5-12.5zm12.5 63.5c-6.902344 0-12.5 5.597656-12.5 12.5s5.597656 12.5 12.5 12.5 12.5-5.597656 12.5-12.5-5.597656-12.5-12.5-12.5zm0 69c-6.902344 0-12.5 5.597656-12.5 12.5s5.597656 12.5 12.5 12.5 12.5-5.597656 12.5-12.5-5.597656-12.5-12.5-12.5zm0 70c-6.902344 0-12.5 5.597656-12.5 12.5s5.597656 12.5 12.5 12.5 12.5-5.597656 12.5-12.5-5.597656-12.5-12.5-12.5zm0 0" fill="#fde5bd"/><path d="m256.5 512c-75.378906 0-143.140625-32.582031-189.988281-84.425781 9.550781-19.378907 29.496093-32.71875 52.558593-32.71875h1.488282c13.332031-26.070313 40.433594-43.925781 71.726562-43.925781 12.636719 0 24.589844 2.917968 35.234375 8.105468 17.609375-31.070312 50.96875-52.035156 89.230469-52.035156 51.757812 0 94.546875 38.363281 101.5 88.203125 15.355469 1.648437 28.925781 9.234375 38.390625 20.410156-46.910156 58.742188-119.125 96.386719-200.140625 96.386719zm0 0" fill="#c7eefd"/><path d="m404.140625 355.941406c-17.605469-12.371094-39.050781-19.65625-62.203125-19.65625-34.136719 0-64.582031 15.785156-84.441406 40.457032-6.203125 7.703124-16.378906 11.097656-25.960938 8.640624-6.769531-1.734374-13.863281-2.65625-21.175781-2.65625-29.054687 0-54.699219 14.5625-70.054687 36.785157-4.113282 5.949219-10.601563 9.777343-17.773438 10.699219-1.785156.230468-3.425781.496093-4.632812.796874-11.660157 2.917969-22.003907 9.148438-29.992188 17.628907-7.535156-6.601563-14.679688-13.632813-21.394531-21.0625 9.550781-19.378907 29.496093-32.714844 52.558593-32.714844h1.488282c13.332031-26.070313 40.433594-43.929687 71.726562-43.929687 12.636719 0 24.589844 2.917968 35.234375 8.105468 17.609375-31.070312 50.96875-52.035156 89.230469-52.035156 36.976562 0 69.363281 19.585938 87.390625 48.941406zm0 0" fill="#98e5fb"/></svg>