<svg height="512pt" viewBox="0 0 512.00009 512" width="512pt" xmlns="http://www.w3.org/2000/svg"><path d="m69.621094 421.980469c-2.378906 2.523437-6.429688 2.445312-8.679688-.199219-38-44.667969-60.941406-102.542969-60.941406-165.78125 0-141.386719 114.613281-256 256-256 141.128906 0 256.121094 115.09375 256 256.222656-.054688 62.976563-22.855469 120.621094-60.621094 165.183594-2.414062 2.84375-6.765625 2.9375-9.328125.226562-46.667969-49.367187-112.757812-80.179687-186.050781-80.179687-73.46875 0-139.695312 30.957031-186.378906 80.527344zm0 0" fill="#98e5fb"/><path d="m365.269531 129.191406c-2.960937 3.753906-7.355469 5.714844-11.792969 5.714844-3.25 0-6.523437-1.050781-9.273437-3.21875-48.636719-38.320312-127.769531-38.320312-176.40625 0-6.503906 5.128906-15.9375 4.007812-21.0625-2.496094-5.128906-6.507812-4.011719-15.9375 2.496094-21.066406 28.695312-22.609375 66.613281-35.0625 106.769531-35.0625s78.074219 12.453125 106.769531 35.0625c6.507813 5.125 7.625 14.558594 2.5 21.066406zm-44.28125 33.800782c-17.523437-13.808594-40.601562-21.414063-64.988281-21.414063s-47.464844 7.605469-64.988281 21.414063c-6.507813 5.125-7.628907 14.558593-2.5 21.066406 5.128906 6.507812 14.558593 7.625 21.0625 2.496094 25.164062-19.828126 67.6875-19.828126 92.851562 0 2.75 2.167968 6.019531 3.21875 9.269531 3.21875 4.441407 0 8.832032-1.960938 11.792969-5.714844 5.128907-6.507813 4.007813-15.941406-2.5-21.066406zm97.488281-109.734376c-43.585937-34.34375-101.289062-53.257812-162.476562-53.257812s-118.890625 18.914062-162.476562 53.257812c-6.507813 5.125-7.625 14.558594-2.5 21.066407 5.128906 6.503906 14.5625 7.625 21.066406 2.496093 79.351562-62.523437 208.464844-62.523437 287.820312 0 2.75 2.167969 6.023438 3.21875 9.273438 3.21875 4.4375 0 8.832031-1.960937 11.789062-5.714843 5.128906-6.507813 4.011719-15.941407-2.496094-21.066407zm0 0" fill="#08a8f0"/><path d="m442 404c0 10.382812-77.34375 88.933594-124.527344 100.566406-19.691406 4.859375-40.28125 7.433594-61.472656 7.433594-71.96875 0-136.988281-29.710938-183.5-77.519531-1.636719-9.921875-2.5-20.097657-2.5-30.480469 0-102.726562 83.273438-186 186-186s186 83.273438 186 186zm0 0" fill="#4f66cf"/><path d="m442 404c0 10.375-77.339844 88.933594-124.527344 100.566406-19.691406 4.859375-40.28125 7.433594-61.472656 7.433594-48.183594 0-93.253906-13.320312-131.742188-36.46875-9.183593-22.019531-14.257812-46.183594-14.257812-71.53125 0-95.96875 72.683594-174.949219 166-184.925781 93.316406 9.976562 166 88.957031 166 184.925781zm0 0" fill="#6c7fd7"/><path d="m440 380.015625c0 23.058594-4.210938 45.132813-11.882812 65.507813-29.789063 27.070312-65.996094 47.199218-106.058594 57.871093-4.953125-4.566406-8.058594-11.109375-8.058594-18.378906v-10c0-8.28125-6.714844-15-15-15-13.644531 0-24.738281-10.929687-24.996094-24.515625-.265625-14.011719 11.542969-25.484375 25.558594-25.484375h54.4375v-25c0-13.804687 11.191406-25 25-25h59.925781c.703125 6.574219 1.074219 13.242187 1.074219 20zm-229-50h-15v-25c0-13.804687-11.191406-25-25-25h-48.007812c-32.78125 33.53125-52.992188 79.402344-52.992188 130 0 6.757813.371094 13.429687 1.074219 20h59.925781c13.808594 0 25-11.191406 25-25v-10c0-8.28125 6.714844-15 15-15h39.4375c14.015625 0 25.824219-11.46875 25.558594-25.480469-.257813-13.585937-11.351563-24.519531-24.996094-24.519531zm0 0" fill="#fdbf43"/><path d="m110 410.015625c0 6.757813 1.125 13.429687 1.828125 20h-40.753906c-.703125-6.570313-1.074219-13.242187-1.074219-20 0-50.597656 20.210938-96.46875 52.992188-130h35.175781c-32.78125 33.53125-48.167969 79.402344-48.167969 130zm0 0" fill="#fcb30b"/><path d="m414.714844 289.167969c-.007813-.015625-.921875-1.433594-1.472656-2.019531-35.757813-47.992188-92.933594-79.128907-157.25-79.128907-64.3125 0-121.488282 31.140625-157.25 79.132813-.546876.582031-5.589844 7.859375-7.53125 10.867187-19.742188 30.578125-31.21875 66.972657-31.21875 106 0 5.925781.269531 11.792969.785156 17.589844 7.585937 8.933594 15.773437 17.339844 24.5 25.15625-2.648438-10.574219-4.363282-21.519531-4.992188-32.746094h89.816406c.484376 23.023438 2.648438 45.320313 6.34375 66.058594-10.625 1.996094-20.765624 4.398437-30.375 7.179687 8.070313 3.84375 16.359376 7.277344 24.863282 10.273438.917968.324219 3.589844 1.242188 6.4375 2.160156 2.089844.671875 4.273437 1.34375 5.925781 1.828125 6.511719 1.90625 12.980469 3.566407 19.617187 4.964844-.910156-3.234375-1.777343-6.519531-2.597656-9.878906 17.785156-2.34375 36.554688-3.585938 55.675782-3.585938 19.121093 0 37.894531 1.242188 55.679687 3.585938-.820313 3.363281-1.6875 6.65625-2.597656 9.886719 6.941406-1.464844 13.777343-3.203126 20.496093-5.214844.546876-.164063 5.472657-1.710938 6.320313-1.988282 10.324219-3.386718 20.355469-7.414062 30.054687-12.03125-9.609374-2.78125-19.777343-5.1875-30.40625-7.179687 3.695313-20.738281 5.859376-43.039063 6.347657-66.0625h89.816406c-.632813 11.230469-2.34375 22.199219-4.992187 32.773437 8.726562-7.816406 16.90625-16.242187 24.492187-25.175781.519531-5.796875.789063-11.667969.789063-17.597656 0-42.863281-13.839844-82.550781-37.277344-114.847656zm-158.722656-61.148438c15.738281 0 31.953124 17.589844 44.484374 48.261719 4.363282 10.675781 8.109376 22.480469 11.195313 35.148438-17.785156 2.34375-36.558594 3.589843-55.679687 3.589843-19.117188 0-37.890626-1.246093-55.675782-3.589843 3.085938-12.671876 6.832032-24.476563 11.195313-35.148438 12.53125-30.671875 28.746093-48.261719 44.480469-48.261719zm-85.890626 166h-89.816406c1.804688-32.0625 12.230469-61.851562 28.992188-87.097656 18.753906 9.132813 41.65625 16.25 67.167968 21.035156-3.695312 20.742188-5.859374 43.039063-6.34375 66.0625zm10.421876-85.730469c-22.328126-4.171874-42.488282-10.175781-58.984376-17.699218 23.328126-27.609375 54.980469-47.96875 91.054688-57.152344-7.234375 9.355469-13.832031 21.167969-19.597656 35.277344-4.90625 12.011718-9.082032 25.3125-12.472656 39.574218zm135.285156 168.625c-19-2.554687-39.121094-3.894531-59.816406-3.894531-20.695313 0-40.8125 1.339844-59.816407 3.894531-3.519531-19.664062-5.589843-40.898437-6.070312-62.894531h131.773437c-.480468 21.996094-2.546875 43.230469-6.070312 62.894531zm-125.703125-82.894531c.484375-21.996093 2.550781-43.230469 6.070312-62.894531 19.003907 2.554688 39.121094 3.894531 59.816407 3.894531 20.699218 0 40.816406-1.339843 59.820312-3.894531 3.519531 19.664062 5.585938 40.898438 6.070312 62.894531zm141.359375-85.730469c-3.394532-14.261718-7.566406-27.5625-12.472656-39.574218-5.765626-14.109375-12.363282-25.921875-19.59375-35.277344 36.070312 9.183594 67.722656 29.542969 91.050781 57.152344-16.496094 7.527344-36.65625 13.527344-58.984375 17.699218zm10.421875 85.730469c-.488281-23.023437-2.652344-45.320312-6.347657-66.0625 25.515626-4.785156 48.414063-11.902343 67.171876-21.035156 16.761718 25.246094 27.1875 55.035156 28.992187 87.097656zm0 0" fill="#314dc8"/></svg>