<svg height="512pt" viewBox="0 0 512 512" width="512pt" xmlns="http://www.w3.org/2000/svg"><path d="m56.164062 415.992188c-35.132812-43.828126-56.164062-99.449219-56.164062-159.992188 0-141.386719 114.613281-256 256-256s256 114.613281 256 256c0 60.542969-21.03125 116.164062-56.164062 159.992188-57.363282-26.546876-126.035157-41.992188-199.835938-41.992188s-142.472656 15.445312-199.835938 41.992188zm0 0" fill="#fdade0"/><path d="m382 475.726562c0 1.957032-1.050781 3.769532-2.765625 4.710938-36.554687 20.117188-78.558594 31.5625-123.234375 31.5625-45.398438 0-88.027344-11.835938-125-32.5625v-419.4375c0-11.046875 8.953125-20 20-20h242.453125c26.121094 16.65625 49.019531 37.917969 67.546875 62.644531v306.710938c-7.558594 10.085937-15.84375 19.597656-24.777344 28.453125-.992187.980468-2.332031 1.523437-3.726562 1.523437h-14.101563c-20.101562 0-36.394531 16.296875-36.394531 36.394531zm0 0" fill="#d80d80"/><path d="m419.066406 439.332031h14.019532c1.015624 0 1.992187-.394531 2.71875-1.109375 9.09375-8.976562 17.519531-18.625 25.195312-28.867187v-349.355469c0-11.046875-8.953125-20-20-20h-261c-6.902344 0-12.988281 3.496094-16.585938 8.816406-.71875 1.066406-1.335937 2.203125-1.84375 3.398438-1.011718 2.394531-1.570312 5.023437-1.570312 7.785156v433.371094c29.648438 12.003906 62.046875 18.628906 96 18.628906 44.914062 0 87.128906-11.566406 123.824219-31.886719 1.347656-.746093 2.175781-2.175781 2.175781-3.714843 0-20.46875 16.59375-37.066407 37.066406-37.066407zm-122.566406 64.667969h-1c-5.523438 0-10-4.476562-10-10s4.476562-10 10-10h1c5.523438 0 10 4.476562 10 10s-4.476562 10-10 10zm9.5-444h-20c-2.761719 0-5-2.238281-5-5s2.238281-5 5-5h20c2.761719 0 5 2.238281 5 5s-2.238281 5-5 5zm0 0" fill="#fd2aa7"/><path d="m220 480h-54c-5.523438 0-10-4.476562-10-10v-390c0-5.523438 4.476562-10 10-10h54c5.523438 0 10 4.476562 10 10v390c0 5.523438-4.476562 10-10 10zm0 0" fill="#62dafa"/><path d="m436 80v358.015625c-16.597656 16.417969-35.433594 30.574219-56.003906 41.984375h-189.996094c-5.523438 0-10-4.476562-10-10v-390c0-5.523438 4.476562-10 10-10h236c5.523438 0 10 4.476562 10 10zm0 0" fill="#98e5fb"/><path d="m412 188v42c0 5.523438-4.476562 10-10 10h-42c-5.523438 0-10-4.476562-10-10v-42c0-5.523438 4.476562-10 10-10h42c5.523438 0 10 4.476562 10 10zm-142 150h-42c-5.523438 0-10 4.476562-10 10v42c0 5.523438 4.476562 10 10 10h42c5.523438 0 10-4.476562 10-10v-42c0-5.523438-4.476562-10-10-10zm0 0" fill="#fff5f5"/><path d="m412 108v42c0 5.523438-4.476562 10-10 10h-42c-5.523438 0-10-4.476562-10-10v-42c0-5.523438 4.476562-10 10-10h42c5.523438 0 10 4.476562 10 10zm-140 152h-42c-5.523438 0-10 4.476562-10 10v42c0 5.523438 4.476562 10 10 10h42c5.523438 0 10-4.476562 10-10v-42c0-5.523438-4.476562-10-10-10zm0 0" fill="#08a8f0"/><path d="m320 240h-122c-5.523438 0-10-4.476562-10-10v-122c0-5.523438 4.476562-10 10-10h122c5.523438 0 10 4.476562 10 10v122c0 5.523438-4.476562 10-10 10zm92 122v-92c0-5.523438-4.476562-10-10-10h-92c-5.523438 0-10 4.476562-10 10v92c0 5.523438 4.476562 10 10 10h92c5.523438 0 10-4.476562 10-10zm-4.5 75.5c-6.902344 0-12.5 5.597656-12.5 12.5 0 6.84375 5.5 12.394531 12.320312 12.492188 4.210938-3.09375 8.328126-6.304688 12.339844-9.644532.214844-.917968.339844-1.867187.339844-2.847656 0-6.902344-5.597656-12.5-12.5-12.5zm-37.5 0c-6.902344 0-12.5 5.597656-12.5 12.5s5.597656 12.5 12.5 12.5 12.5-5.597656 12.5-12.5-5.597656-12.5-12.5-12.5zm-37.5 0c-6.902344 0-12.5 5.597656-12.5 12.5s5.597656 12.5 12.5 12.5 12.5-5.597656 12.5-12.5-5.597656-12.5-12.5-12.5zm0 0" fill="#01cffa"/><path d="m251 180v330c0 .660156-.066406 1.308594-.191406 1.933594-50.160156-.996094-96.769532-16.4375-135.871094-42.308594-3.085938-2.039062-4.9375-5.496094-4.9375-9.195312 0-16.804688-13.625-30.429688-30.429688-30.429688h-8.589843c-1.738281 0-3.40625-.722656-4.578125-2.011719-5.414063-5.964843-10.5625-12.175781-15.402344-18.632812v-229.355469c0-5.523438 4.476562-10 10-10h180c5.523438 0 10 4.476562 10 10zm0 0" fill="#1f3595"/><path d="m241 170h-151c-5.523438 0-10 4.476562-10 10v250h30v32.738281c0 2.226563 1.089844 4.316407 2.929688 5.5625 7.203124 4.859375 14.667968 9.367188 22.367187 13.492188 1.617187-1.128907 3.582031-1.792969 5.703125-1.792969h19.710938c5.1875 0 9.730468 3.828125 10.238281 8.992188.292969 2.941406-.707031 5.644531-2.480469 7.640624 25.769531 9.371094 53.46875 14.726563 82.339844 15.300782.125-.625.191406-1.273438.191406-1.933594v-330c0-5.523438-4.476562-10-10-10zm-80 20h-20c-2.761719 0-5-2.238281-5-5s2.238281-5 5-5h20c2.761719 0 5 2.238281 5 5s-2.238281 5-5 5zm0 0" fill="#2740af"/><path d="m236 210v250c0 5.523438-4.476562 10-10 10h-110.519531c-18.253907-12.011719-34.882813-26.285156-49.480469-42.441406v-217.558594c0-5.523438 4.476562-10 10-10h150c5.523438 0 10 4.476562 10 10zm0 0" fill="#fdbf43"/><path d="m236 210v250c0 5.523438-4.476562 10-10 10h-110.519531c-8.894531-5.851562-17.40625-12.242188-25.480469-19.128906v-240.871094c0-5.523438 4.476562-10 10-10h126c5.523438 0 10 4.476562 10 10zm0 0" fill="#fdcb6b"/><path d="m163 262h-24c-5.523438 0-10-4.476562-10-10v-24c0-5.523438 4.476562-10 10-10h24c5.523438 0 10 4.476562 10 10v24c0 5.523438-4.476562 10-10 10zm0 0" fill="#fc6930"/><path d="m119 228v24c0 5.523438-4.476562 10-10 10h-24c-5.523438 0-10-4.476562-10-10v-24c0-5.523438 4.476562-10 10-10h24c5.523438 0 10 4.476562 10 10zm98 49h-24c-5.523438 0-10 4.476562-10 10v24c0 5.523438 4.476562 10 10 10h24c5.523438 0 10-4.476562 10-10v-24c0-5.523438-4.476562-10-10-10zm-108 59h-24c-5.523438 0-10 4.476562-10 10v24c0 5.523438 4.476562 10 10 10h24c5.523438 0 10-4.476562 10-10v-24c0-5.523438-4.476562-10-10-10zm54 0h-24c-5.523438 0-10 4.476562-10 10v24c0 5.523438 4.476562 10 10 10h24c5.523438 0 10-4.476562 10-10v-24c0-5.523438-4.476562-10-10-10zm0 0" fill="#fde5bd"/><path d="m227 228v24c0 5.523438-4.476562 10-10 10h-24c-5.523438 0-10-4.476562-10-10v-24c0-5.523438 4.476562-10 10-10h24c5.523438 0 10 4.476562 10 10zm-108 83v-24c0-5.523438-4.476562-10-10-10h-24c-5.523438 0-10 4.476562-10 10v24c0 5.523438 4.476562 10 10 10h24c5.523438 0 10-4.476562 10-10zm54 0v-24c0-5.523438-4.476562-10-10-10h-24c-5.523438 0-10 4.476562-10 10v24c0 5.523438 4.476562 10 10 10h24c5.523438 0 10-4.476562 10-10zm44 25h-24c-5.523438 0-10 4.476562-10 10v24c0 5.523438 4.476562 10 10 10h24c5.523438 0 10-4.476562 10-10v-24c0-5.523438-4.476562-10-10-10zm-92.25 96.5c-4.832031 0-8.75 3.917969-8.75 8.75s3.917969 8.75 8.75 8.75 8.75-3.917969 8.75-8.75-3.917969-8.75-8.75-8.75zm26.25 0c-4.832031 0-8.75 3.917969-8.75 8.75s3.917969 8.75 8.75 8.75 8.75-3.917969 8.75-8.75-3.917969-8.75-8.75-8.75zm26.25 0c-4.832031 0-8.75 3.917969-8.75 8.75s3.917969 8.75 8.75 8.75 8.75-3.917969 8.75-8.75-3.917969-8.75-8.75-8.75zm0 0" fill="#fcb30b"/></svg>