<svg height="512pt" viewBox="0 0 512 512.00042" width="512pt" xmlns="http://www.w3.org/2000/svg"><path d="m0 256c0-141.226562 114.359375-255.742188 255.523438-256 140.269531-.253906 255.289062 113.539062 256.464843 253.804688.609375 72.402343-28.855469 137.917968-76.636719 184.84375-.769531.757812-2 .757812-2.78125.011718-45.933593-43.773437-108.109374-70.660156-176.570312-70.660156s-130.636719 26.886719-176.570312 70.660156c-.78125.742188-2.011719.746094-2.78125-.011718-47.300782-46.449219-76.648438-111.117188-76.648438-182.648438zm0 0" fill="#fdbf43"/><path d="m436 55v383.015625c-46.246094 45.734375-109.820312 73.984375-180 73.984375s-133.753906-28.25-180-73.984375v-383.015625c0-8.285156 6.714844-15 15-15h330c8.285156 0 15 6.714844 15 15zm0 0" fill="#1f3595"/><path d="m350.828125 493.839844c-29.328125 11.707031-61.320313 18.160156-94.828125 18.160156-32.820312 0-64.1875-6.191406-93.023438-17.449219h186.082032c.59375-.230469 1.179687-.472656 1.769531-.710937zm-235.828125-59.289063h246.75c3.175781 0 5.75 2.574219 5.75 5.75v8.5c0 3.175781-2.574219 5.75-5.75 5.75h-246.75c-2.761719 0-5 2.242188-5 5v6.742188c4.132812 2.875 8.359375 5.625 12.667969 8.257812h239.082031c3.175781 0 5.75 2.574219 5.75 5.75v6.183594c25.472656-12.347656 48.59375-28.78125 68.5-48.46875v-18.015625h-321c-2.761719 0-5 2.238281-5 5v4.550781c0 2.761719 2.238281 5 5 5zm0-141.21875h321v106.667969h-321c-2.761719 0-5-2.238281-5-5v-14c0-2.761719 2.238281-5 5-5h69.25c3.175781 0 5.75-2.574219 5.75-5.75v-8.5c0-3.175781-2.574219-5.75-5.75-5.75h-69.25c-2.761719 0-5-2.238281-5-5v-10c0-2.761719 2.238281-5 5-5h69.25c3.175781 0 5.75-2.574219 5.75-5.75v-8.5c0-3.175781-2.574219-5.75-5.75-5.75h-69.25c-2.761719 0-5-2.238281-5-5v-12.667969c0-2.757812 2.238281-5 5-5zm285 79.097657c0 4.734374 3.839844 8.570312 8.570312 8.570312 4.734376 0 8.570313-3.835938 8.570313-8.570312 0-4.734376-3.835937-8.570313-8.570313-8.570313-4.730468 0-8.570312 3.835937-8.570312 8.570313zm-47.5 2.820312c0 3.175781 2.574219 5.75 5.75 5.75h3.5c3.175781 0 5.75-2.574219 5.75-5.75v-58.5c0-3.175781-2.574219-5.75-5.75-5.75h-3.5c-3.175781 0-5.75 2.574219-5.75 5.75zm-33.125 0c0 3.175781 2.574219 5.75 5.75 5.75h3.5c3.175781 0 5.75-2.574219 5.75-5.75v-58.5c0-3.175781-2.574219-5.75-5.75-5.75h-3.5c-3.175781 0-5.75 2.574219-5.75 5.75zm-33.125 0c0 3.175781 2.574219 5.75 5.75 5.75h3.5c3.175781 0 5.75-2.574219 5.75-5.75v-58.5c0-3.175781-2.574219-5.75-5.75-5.75h-3.5c-3.175781 0-5.75 2.574219-5.75 5.75zm-33.125 0c0 3.175781 2.574219 5.75 5.75 5.75h3.5c3.175781 0 5.75-2.574219 5.75-5.75v-58.5c0-3.175781-2.574219-5.75-5.75-5.75h-3.5c-3.175781 0-5.75 2.574219-5.75 5.75zm-33.125 0c0 3.175781 2.574219 5.75 5.75 5.75h3.5c3.175781 0 5.75-2.574219 5.75-5.75v-58.5c0-3.175781-2.574219-5.75-5.75-5.75h-3.5c-3.175781 0-5.75 2.574219-5.75 5.75zm-105-208.582031h321v106.667969h-321c-2.761719 0-5-2.242188-5-5v-13.335938c0-2.761719 2.238281-5 5-5h69.25c3.175781 0 5.75-2.574219 5.75-5.75v-8.5c0-3.175781-2.574219-5.75-5.75-5.75h-69.25c-2.761719 0-5-2.238281-5-5v-10c0-2.761719 2.238281-5 5-5h69.25c3.175781 0 5.75-2.574219 5.75-5.75v-8.5c0-3.175781-2.574219-5.75-5.75-5.75h-69.25c-2.761719 0-5-2.238281-5-5v-13.332031c0-2.761719 2.238281-5 5-5zm285 79.761719c0 4.734374 3.839844 8.570312 8.570312 8.570312 4.734376 0 8.570313-3.835938 8.570313-8.570312 0-4.734376-3.835937-8.570313-8.570313-8.570313-4.730468 0-8.570312 3.835937-8.570312 8.570313zm-47.5 2.820312c0 3.175781 2.574219 5.75 5.75 5.75h3.5c3.175781 0 5.75-2.574219 5.75-5.75v-58.5c0-3.175781-2.574219-5.75-5.75-5.75h-3.5c-3.175781 0-5.75 2.574219-5.75 5.75zm-33.125 0c0 3.175781 2.574219 5.75 5.75 5.75h3.5c3.175781 0 5.75-2.574219 5.75-5.75v-58.5c0-3.175781-2.574219-5.75-5.75-5.75h-3.5c-3.175781 0-5.75 2.574219-5.75 5.75zm-33.125 0c0 3.175781 2.574219 5.75 5.75 5.75h3.5c3.175781 0 5.75-2.574219 5.75-5.75v-58.5c0-3.175781-2.574219-5.75-5.75-5.75h-3.5c-3.175781 0-5.75 2.574219-5.75 5.75zm-33.125 0c0 3.175781 2.574219 5.75 5.75 5.75h3.5c3.175781 0 5.75-2.574219 5.75-5.75v-58.5c0-3.175781-2.574219-5.75-5.75-5.75h-3.5c-3.175781 0-5.75 2.574219-5.75 5.75zm-33.125 0c0 3.175781 2.574219 5.75 5.75 5.75h3.5c3.175781 0 5.75-2.574219 5.75-5.75v-58.5c0-3.175781-2.574219-5.75-5.75-5.75h-3.5c-3.175781 0-5.75 2.574219-5.75 5.75zm216-194.25v91.667969h-321c-2.761719 0-5-2.238281-5-5v-11.667969c0-2.761719 2.238281-5 5-5h69.25c3.175781 0 5.75-2.574219 5.75-5.75v-8.5c0-3.175781-2.574219-5.75-5.75-5.75h-69.25c-2.761719 0-5-2.238281-5-5v-10c0-2.761719 2.238281-5 5-5h69.25c3.175781 0 5.75-2.574219 5.75-5.75v-8.5c0-3.175781-2.574219-5.75-5.75-5.75h-69.25c-2.761719 0-5-2.238281-5-5v-5c0-8.285156 6.714844-15 15-15h296c8.285156 0 15 6.714844 15 15zm-201 10.75c0-3.175781-2.574219-5.75-5.75-5.75h-3.5c-3.175781 0-5.75 2.574219-5.75 5.75v58.5c0 3.175781 2.574219 5.75 5.75 5.75h3.5c3.175781 0 5.75-2.574219 5.75-5.75zm33.125 0c0-3.175781-2.574219-5.75-5.75-5.75h-3.5c-3.175781 0-5.75 2.574219-5.75 5.75v58.5c0 3.175781 2.574219 5.75 5.75 5.75h3.5c3.175781 0 5.75-2.574219 5.75-5.75zm33.125 0c0-3.175781-2.574219-5.75-5.75-5.75h-3.5c-3.175781 0-5.75 2.574219-5.75 5.75v58.5c0 3.175781 2.574219 5.75 5.75 5.75h3.5c3.175781 0 5.75-2.574219 5.75-5.75zm33.125 0c0-3.175781-2.574219-5.75-5.75-5.75h-3.5c-3.175781 0-5.75 2.574219-5.75 5.75v58.5c0 3.175781 2.574219 5.75 5.75 5.75h3.5c3.175781 0 5.75-2.574219 5.75-5.75zm33.125 0c0-3.175781-2.574219-5.75-5.75-5.75h-3.5c-3.175781 0-5.75 2.574219-5.75 5.75v58.5c0 3.175781 2.574219 5.75 5.75 5.75h3.5c3.175781 0 5.75-2.574219 5.75-5.75zm49.644531 55.679688c0-4.734376-3.839843-8.570313-8.574219-8.570313-4.730468 0-8.570312 3.835937-8.570312 8.570313 0 4.734374 3.839844 8.570312 8.570312 8.570312 4.734376 0 8.574219-3.835938 8.574219-8.570312zm0 0" fill="#4f66cf"/><path d="m417.144531 438.125c0 4.734375-3.839843 8.570312-8.574219 8.570312-4.730468 0-8.570312-3.839843-8.570312-8.570312 0-4.734375 3.839844-8.574219 8.570312-8.574219 4.734376 0 8.574219 3.839844 8.574219 8.574219zm-8.574219-334.554688c4.734376 0 8.570313-3.835937 8.570313-8.570312s-3.835937-8.570312-8.570313-8.570312c-4.734374 0-8.570312 3.835937-8.570312 8.570312s3.839844 8.570312 8.570312 8.570312zm0 107.859376c-4.734374 0-8.570312 3.835937-8.570312 8.570312s3.839844 8.570312 8.570312 8.570312c4.734376 0 8.570313-3.835937 8.570313-8.570312.003906-4.734375-3.835937-8.570312-8.570313-8.570312zm0 99.570312c-4.734374 0-8.570312 3.839844-8.570312 8.570312 0 4.734376 3.839844 8.570313 8.570312 8.570313 4.734376 0 8.570313-3.835937 8.570313-8.570313 0-4.730468-3.835937-8.570312-8.570313-8.570312zm0 0" fill="#89e9d9"/><path d="m400 68.570312c0-4.734374 3.839844-8.570312 8.570312-8.570312 4.734376 0 8.570313 3.839844 8.570313 8.570312 0 4.734376-3.835937 8.570313-8.570313 8.570313-4.730468.003906-8.570312-3.835937-8.570312-8.570313zm0 395.980469c0 .980469.171875 1.921875.476562 2.796875 4.503907-3.085937 8.914063-6.304687 13.207032-9.664062-1.429688-1.066406-3.195313-1.703125-5.113282-1.703125-4.730468 0-8.570312 3.839843-8.570312 8.570312zm8.570312-127.121093c-4.734374 0-8.570312 3.835937-8.570312 8.570312s3.839844 8.570312 8.570312 8.570312c4.734376 0 8.570313-3.835937 8.570313-8.570312.003906-4.734375-3.835937-8.570312-8.570313-8.570312zm0-152.429688c-4.734374 0-8.570312 3.839844-8.570312 8.570312 0 4.734376 3.839844 8.570313 8.570312 8.570313 4.734376 0 8.570313-3.835937 8.570313-8.570313 0-4.730468-3.835937-8.570312-8.570313-8.570312zm0 0" fill="#0ab59e"/></svg>